<svg width="80" height="80" viewBox="0 0 80 80" fill="none" xmlns="http://www.w3.org/2000/svg">
<g clip-path="url(#clip0_607_4466)">
<g opacity="0.2">
<path d="M39.2928 39.3144V18.774L5.05919 18.774V39.3144H39.2928Z" fill="#B9B3FF"/>
<path d="M74.896 61.2244V40.684H40.6624V61.2244H74.896Z" fill="#B9B3FF"/>
<path d="M40.6624 39.3144H61.2032L61.2032 5.08151H40.6624V39.3144Z" fill="#B9B3FF"/>
<path d="M18.7536 74.9169H39.2944L39.2944 40.684H18.7536L18.7536 74.9169Z" fill="#B9B3FF"/>
</g>
<path d="M39.9776 39.2136L15.5296 14.7661L30.2944 0L54.744 24.4475L39.9776 39.2136V39.2136ZM16.0128 14.7661L39.9776 38.7304L54.2592 24.4491L30.2944 0.48479L16.0128 14.7661Z" fill="#220080"/>
<path d="M49.6608 79.9984L25.2112 55.5509L39.9776 40.7848L64.4272 65.2339L49.6608 80V79.9984ZM25.696 55.5509L49.6608 79.5152L63.9424 65.2339L39.9776 41.2696L25.696 55.5509V55.5509Z" fill="#220080"/>
<path d="M55.1872 54.7653L40.4208 39.9992L64.8688 15.5501L79.6352 30.3162L55.1872 54.7653ZM40.9056 39.9992L55.1872 54.2805L79.152 30.3162L64.8704 16.0349L40.904 39.9992H40.9056Z" fill="#220080"/>
<path d="M15.0864 64.4483L0.320007 49.6822L24.7696 25.2331L39.536 39.9992L15.0864 64.4483ZM0.803207 49.6822L15.0848 63.9635L39.0512 39.9992L24.7696 25.7179L0.803207 49.6822Z" fill="#220080"/>
</g>
<defs>
<clipPath id="clip0_607_4466">
<rect width="80" height="80" fill="white"/>
</clipPath>
</defs>
</svg>
