<svg width="630" height="186" viewBox="0 0 630 186" fill="none" xmlns="http://www.w3.org/2000/svg">
<path d="M283 1H305V185H283" stroke="black" stroke-width="0.5"/>
<path d="M336.177 94.1768C336.274 94.0791 336.274 93.9209 336.177 93.8232L334.586 92.2322C334.488 92.1346 334.33 92.1346 334.232 92.2322C334.135 92.3299 334.135 92.4882 334.232 92.5858L335.646 94L334.232 95.4142C334.135 95.5118 334.135 95.6701 334.232 95.7678C334.33 95.8654 334.488 95.8654 334.586 95.7678L336.177 94.1768ZM305 94.25L336 94.25L336 93.75L305 93.75L305 94.25Z" fill="black"/>
<path d="M468 1H490V185H468" stroke="black" stroke-width="0.5"/>
<path d="M521.177 94.1768C521.274 94.0791 521.274 93.9209 521.177 93.8232L519.586 92.2322C519.488 92.1346 519.33 92.1346 519.232 92.2322C519.135 92.3299 519.135 92.4882 519.232 92.5858L520.646 94L519.232 95.4142C519.135 95.5118 519.135 95.6701 519.232 95.7678C519.33 95.8654 519.488 95.8654 519.586 95.7678L521.177 94.1768ZM490 94.25L521 94.25L521 93.75L490 93.75L490 94.25Z" fill="black"/>
<circle cx="8" cy="83.9999" r="8" fill="#8A80FF"/>
<circle cx="8" cy="111" r="8" fill="#3D00E5"/>
<circle cx="67" cy="84.9999" r="12" fill="#3D00E5"/>
<circle cx="64" cy="101" r="11.5" fill="#8A80FF" stroke="white"/>
<circle cx="82" cy="98.9999" r="12" fill="#F6F5FA"/>
<circle cx="82" cy="80.9999" r="11.5" fill="#8A80FF" stroke="white"/>
<circle cx="88.3567" cy="106.356" r="12" transform="rotate(-178.271 88.3567 106.356)" fill="#3D00E5"/>
<circle cx="93.3567" cy="95.3565" r="11.5" transform="rotate(-178.271 93.3567 95.3565)" fill="#8A80FF" stroke="white"/>
<circle cx="76.3567" cy="96.399" r="12" transform="rotate(-178.271 76.3567 96.399)" fill="#3D00E5"/>
<circle cx="77.3567" cy="110.356" r="11.5" transform="rotate(-178.271 77.3567 110.356)" fill="#8A80FF" stroke="white"/>
<ellipse cx="203.87" cy="86.162" rx="13.4232" ry="13.1314" fill="#3D00E5"/>
<circle cx="202.703" cy="102.212" r="12.9232" fill="#8A80FF" stroke="white"/>
<circle cx="214.375" cy="92.29" r="13.4232" fill="#3D00E5"/>
<path d="M230.217 79.1586C230.217 86.1244 224.441 91.79 217.293 91.79C210.146 91.79 204.37 86.1244 204.37 79.1586C204.37 72.1928 210.146 66.5272 217.293 66.5272C224.441 66.5272 230.217 72.1928 230.217 79.1586Z" fill="#8A80FF" stroke="white"/>
<circle cx="229.916" cy="102.687" r="13.3451" transform="rotate(-178.271 229.916 102.687)" fill="#3D00E5"/>
<circle cx="231.565" cy="86.4827" r="12.8451" transform="rotate(-178.271 231.565 86.4827)" fill="#8A80FF" stroke="white"/>
<circle cx="219.669" cy="95.9919" r="13.3451" transform="rotate(-178.271 219.669 95.9919)" fill="#3D00E5"/>
<circle cx="216.367" cy="109.243" r="12.8451" transform="rotate(-178.271 216.367 109.243)" fill="#8A80FF" stroke="white"/>
<path d="M290.5 94.4999C290.5 135.366 257.148 168.5 216 168.5C174.852 168.5 141.5 135.366 141.5 94.4999C141.5 53.634 174.852 20.4999 216 20.4999C257.148 20.4999 290.5 53.634 290.5 94.4999Z" stroke="#070019"/>
<circle cx="216" cy="95.9999" r="50.5" stroke="#070019"/>
<rect width="34.847" height="1.82437" transform="matrix(-0.937128 0.348985 -0.328736 -0.944422 388.163 145.677)" fill="#070019"/>
<rect width="34.847" height="1.82437" transform="matrix(-0.937128 0.348985 -0.328736 -0.944422 386.609 141.245)" fill="#070019"/>
<rect width="34.847" height="1.82437" transform="matrix(-0.573064 -0.81951 0.831654 -0.555294 385.134 125.782)" fill="#070019"/>
<rect width="34.847" height="1.82437" transform="matrix(-0.573064 -0.81951 0.831654 -0.555294 389.067 123.411)" fill="#070019"/>
<rect width="50.7146" height="1.82437" transform="matrix(0.707107 -0.707107 0.691725 0.722161 414 114.861)" fill="#070019"/>
<rect width="21.8573" height="1.82437" transform="matrix(0.707107 -0.707107 0.691725 0.722161 379.252 73.6089)" fill="#070019"/>
<rect width="31.2451" height="1.82437" transform="matrix(0.197328 -0.980338 0.975864 0.21838 362 67.6306)" fill="#070019"/>
<path d="M226.253 159.475C230.398 160.131 233.223 164.125 232.545 168.409C231.867 172.694 227.948 175.621 223.803 174.965C219.658 174.31 216.833 170.315 217.511 166.031C218.189 161.747 222.109 158.819 226.253 159.475Z" fill="url(#paint0_linear_7_406)" stroke="url(#paint1_linear_7_406)" stroke-width="0.5"/>
<path d="M283.253 54.4751C287.398 55.1307 290.223 59.125 289.545 63.4094C288.867 67.6937 284.948 70.6211 280.803 69.9655C276.658 69.3098 273.833 65.3155 274.511 61.0311C275.189 56.7468 279.109 53.8194 283.253 54.4751Z" fill="url(#paint2_linear_7_406)" stroke="url(#paint3_linear_7_406)" stroke-width="0.5"/>
<circle cx="341.879" cy="158.043" r="19.75" transform="rotate(-81.0106 341.879 158.043)" fill="url(#paint4_linear_7_406)" stroke="url(#paint5_linear_7_406)" stroke-width="0.5"/>
<circle cx="398.901" cy="135.9" r="25.8876" transform="rotate(-81.0106 398.901 135.9)" fill="url(#paint6_linear_7_406)" stroke="url(#paint7_linear_7_406)" stroke-width="0.5"/>
<circle cx="364.668" cy="84.6675" r="19.5649" transform="rotate(-81.0106 364.668 84.6675)" fill="url(#paint8_linear_7_406)" stroke="url(#paint9_linear_7_406)" stroke-width="0.5"/>
<circle cx="371.746" cy="26.7458" r="16.1366" transform="rotate(-81.0106 371.746 26.7458)" fill="url(#paint10_linear_7_406)" stroke="url(#paint11_linear_7_406)" stroke-width="0.5"/>
<circle cx="400.011" cy="53.187" r="11.9977" transform="rotate(-81.0106 400.011 53.187)" fill="url(#paint12_linear_7_406)" stroke="url(#paint13_linear_7_406)" stroke-width="0.5"/>
<circle cx="461.042" cy="70.0415" r="19.0176" transform="rotate(-81.0106 461.042 70.0415)" fill="url(#paint14_linear_7_406)" stroke="url(#paint15_linear_7_406)" stroke-width="0.5"/>
<path d="M179.746 125.685C182.03 126.047 183.746 128.302 183.335 130.902C182.924 133.501 180.595 135.117 178.311 134.755C176.026 134.394 174.31 132.139 174.721 129.539C175.133 126.939 177.461 125.324 179.746 125.685Z" fill="url(#paint16_linear_7_406)" stroke="url(#paint17_linear_7_406)" stroke-width="7"/>
<path d="M192.746 46.6851C195.03 47.0466 196.746 49.3017 196.335 51.9016C195.924 54.5014 193.595 56.1168 191.311 55.7554C189.026 55.3939 187.31 53.1388 187.721 50.5389C188.133 47.9391 190.461 46.3237 192.746 46.6851Z" fill="url(#paint18_linear_7_406)" stroke="url(#paint19_linear_7_406)" stroke-width="7"/>
<path d="M264.746 100.685C267.03 101.047 268.746 103.302 268.335 105.902C267.924 108.501 265.595 110.117 263.311 109.755C261.026 109.394 259.31 107.139 259.721 104.539C260.133 101.939 262.461 100.324 264.746 100.685Z" fill="url(#paint20_linear_7_406)" stroke="url(#paint21_linear_7_406)" stroke-width="7"/>
<path d="M143.253 101.475C147.398 102.131 150.223 106.125 149.545 110.409C148.867 114.694 144.948 117.621 140.803 116.966C136.658 116.31 133.833 112.316 134.511 108.031C135.189 103.747 139.109 100.819 143.253 101.475Z" fill="url(#paint22_linear_7_406)" stroke="url(#paint23_linear_7_406)" stroke-width="0.5"/>
<path d="M195.253 15.4751C199.398 16.1307 202.223 20.125 201.545 24.4094C200.867 28.6937 196.948 31.6211 192.803 30.9655C188.658 30.3098 185.833 26.3155 186.511 22.0311C187.189 17.7468 191.109 14.8194 195.253 15.4751Z" fill="url(#paint24_linear_7_406)" stroke="url(#paint25_linear_7_406)" stroke-width="0.5"/>
<path d="M579.885 41H581.115C608.115 41 630 63.1598 630 90.5C630 117.84 608.115 140 581.115 140H579.885C552.885 140 531 117.84 531 90.5C531 63.1598 552.885 41 579.885 41Z" fill="url(#paint26_linear_7_406)"/>
<path d="M577.222 100.824V85.0385C577.222 81.4099 576.196 78.6041 574.152 76.6332C572.145 74.6193 568.83 73.6063 564.214 73.6063C561.967 73.6063 560.015 73.8887 558.37 74.4536C556.725 75.0184 555.356 75.7613 554.276 76.6884C553.189 77.6155 552.366 78.7023 551.808 79.9548C551.243 81.1643 550.942 82.4537 550.905 83.8229H558.192C558.315 82.3309 558.855 81.2442 559.819 80.5565C560.782 79.832 562.225 79.4698 564.153 79.4698C565.878 79.4698 567.167 79.8136 568.008 80.4951C568.892 81.1398 569.334 82.0301 569.334 83.1536C569.334 84.2772 568.732 85.1122 567.529 85.5113C566.326 85.9165 564.435 86.2972 561.869 86.6594C560.144 86.8989 558.517 87.2427 556.989 87.6848C555.503 88.09 554.196 88.6733 553.072 89.4408C551.949 90.2082 551.065 91.1722 550.421 92.3449C549.776 93.5114 549.457 94.9482 549.457 96.6366C549.457 99.7433 550.463 102.101 552.471 103.716C554.478 105.331 557.069 106.135 560.242 106.135C561.568 106.135 562.71 106.012 563.674 105.773C564.638 105.57 565.46 105.288 566.141 104.925C566.866 104.563 567.467 104.139 567.946 103.654C568.468 103.132 568.928 102.568 569.334 101.96H569.456C569.536 102.647 569.659 103.311 569.818 103.955C569.978 104.6 570.181 105.085 570.42 105.404H578.308V105.103C577.584 104.581 577.222 103.151 577.222 100.812V100.824ZM569.512 94.4754C569.512 95.2429 569.352 95.9858 569.033 96.7164C568.714 97.4041 568.229 98.0242 567.59 98.589C566.989 99.1109 566.227 99.5591 565.3 99.9214C564.417 100.247 563.391 100.406 562.231 100.406C560.789 100.406 559.622 100.124 558.738 99.5591C557.854 98.9513 557.412 97.9259 557.412 96.477C557.412 95.028 557.934 93.9781 558.978 93.3334C560.021 92.6887 561.63 92.1239 563.797 91.6388C564.84 91.3994 565.865 91.1538 566.866 90.9143C567.909 90.6319 568.793 90.2696 569.518 89.8276V94.4877L569.512 94.4754Z" fill="white"/>
<path d="M610.678 83.3016C610.074 81.2949 609.161 79.5899 607.947 78.1803C606.776 76.7338 605.358 75.6135 603.7 74.8071C602.042 74.0069 600.181 73.6007 598.122 73.6007C596.063 73.6007 594.159 74.0439 592.661 74.9241C591.206 75.8043 589.973 76.9307 588.963 78.2972H588.778V74.444H580.832V115.464H589.086V101.854H589.209C590.097 103.177 591.274 104.242 592.729 105.049C594.183 105.849 596.008 106.255 598.19 106.255C600.168 106.255 601.993 105.873 603.651 105.11C605.309 104.347 606.727 103.264 607.898 101.86C609.112 100.457 610.043 98.7455 610.69 96.7388C611.337 94.6891 611.664 92.4239 611.664 89.9309C611.664 87.438 611.343 85.3144 610.69 83.3077L610.678 83.3016ZM601.395 97.0343C600.181 98.6408 598.523 99.441 596.421 99.441C593.955 99.441 592.075 98.5977 590.781 96.9112C589.53 95.2246 588.901 92.9779 588.901 90.1648C588.901 88.7983 589.024 87.5119 589.265 86.3116C589.548 85.0682 589.973 84.0033 590.54 83.1169C591.145 82.2367 591.897 81.5288 592.784 81.0118C593.715 80.4886 594.824 80.23 596.119 80.23C598.664 80.23 600.489 81.1533 601.58 83C602.714 84.8466 603.281 87.2349 603.281 90.1648C603.281 93.0948 602.652 95.3846 601.401 97.0281L601.395 97.0343Z" fill="white"/>
<path d="M40.32 41L40.4749 40.8037L40.3215 40.6827L40.167 40.8023L40.32 41ZM72.0293 66.2483C72.1664 66.2321 72.2644 66.1079 72.2483 65.9707L71.9849 63.7362C71.9688 63.5991 71.8445 63.501 71.7074 63.5172C71.5703 63.5333 71.4722 63.6576 71.4884 63.7947L71.7225 65.781L69.7362 66.0151C69.5991 66.0312 69.501 66.1555 69.5172 66.2926C69.5333 66.4297 69.6576 66.5278 69.7947 66.5116L72.0293 66.2483ZM8.15296 66.1977L40.473 41.1977L40.167 40.8023L7.84704 65.8023L8.15296 66.1977ZM40.1651 41.1963L71.8451 66.1963L72.1549 65.8037L40.4749 40.8037L40.1651 41.1963Z" fill="black"/>
<path d="M40.32 153L40.4749 153.196L40.3215 153.317L40.167 153.198L40.32 153ZM72.0293 127.752C72.1664 127.768 72.2644 127.892 72.2483 128.029L71.9849 130.264C71.9688 130.401 71.8445 130.499 71.7074 130.483C71.5703 130.467 71.4722 130.342 71.4884 130.205L71.7225 128.219L69.7362 127.985C69.5991 127.969 69.501 127.845 69.5172 127.707C69.5333 127.57 69.6576 127.472 69.7947 127.488L72.0293 127.752ZM8.15296 127.802L40.473 152.802L40.167 153.198L7.84704 128.198L8.15296 127.802ZM40.1651 152.804L71.8451 127.804L72.1549 128.196L40.4749 153.196L40.1651 152.804Z" fill="black"/>
<rect x="136" y="89" width="34" height="9" fill="white"/>
<path d="M183.177 94.1768C183.274 94.0791 183.274 93.9209 183.177 93.8232L181.586 92.2322C181.488 92.1346 181.33 92.1346 181.232 92.2322C181.135 92.3299 181.135 92.4882 181.232 92.5858L182.646 94L181.232 95.4142C181.135 95.5118 181.135 95.6701 181.232 95.7678C181.33 95.8654 181.488 95.8654 181.586 95.7678L183.177 94.1768ZM111 94.25H183V93.75H111V94.25Z" fill="black"/>
<defs>
<linearGradient id="paint0_linear_7_406" x1="217.264" y1="165.992" x2="232.792" y2="168.448" gradientUnits="userSpaceOnUse">
<stop stop-color="#220080"/>
<stop offset="1" stop-color="#3D00E5"/>
</linearGradient>
<linearGradient id="paint1_linear_7_406" x1="217.264" y1="165.992" x2="232.792" y2="168.448" gradientUnits="userSpaceOnUse">
<stop stop-color="white"/>
<stop offset="1" stop-color="#3D00E5"/>
</linearGradient>
<linearGradient id="paint2_linear_7_406" x1="274.264" y1="60.9921" x2="289.792" y2="63.4485" gradientUnits="userSpaceOnUse">
<stop stop-color="#220080"/>
<stop offset="1" stop-color="#3D00E5"/>
</linearGradient>
<linearGradient id="paint3_linear_7_406" x1="274.264" y1="60.9921" x2="289.792" y2="63.4485" gradientUnits="userSpaceOnUse">
<stop stop-color="white"/>
<stop offset="1" stop-color="#3D00E5"/>
</linearGradient>
<linearGradient id="paint4_linear_7_406" x1="341.879" y1="138.043" x2="341.879" y2="178.043" gradientUnits="userSpaceOnUse">
<stop stop-color="#220080"/>
<stop offset="1" stop-color="#3D00E5"/>
</linearGradient>
<linearGradient id="paint5_linear_7_406" x1="341.879" y1="138.043" x2="341.879" y2="178.043" gradientUnits="userSpaceOnUse">
<stop stop-color="white"/>
<stop offset="1" stop-color="#3D00E5"/>
</linearGradient>
<linearGradient id="paint6_linear_7_406" x1="398.901" y1="109.763" x2="398.901" y2="162.038" gradientUnits="userSpaceOnUse">
<stop stop-color="#220080"/>
<stop offset="1" stop-color="#3D00E5"/>
</linearGradient>
<linearGradient id="paint7_linear_7_406" x1="398.901" y1="109.763" x2="398.901" y2="162.038" gradientUnits="userSpaceOnUse">
<stop stop-color="white"/>
<stop offset="1" stop-color="#3D00E5"/>
</linearGradient>
<linearGradient id="paint8_linear_7_406" x1="364.668" y1="64.8527" x2="364.668" y2="104.482" gradientUnits="userSpaceOnUse">
<stop stop-color="#220080"/>
<stop offset="1" stop-color="#3D00E5"/>
</linearGradient>
<linearGradient id="paint9_linear_7_406" x1="364.668" y1="64.8527" x2="364.668" y2="104.482" gradientUnits="userSpaceOnUse">
<stop stop-color="white"/>
<stop offset="1" stop-color="#3D00E5"/>
</linearGradient>
<linearGradient id="paint10_linear_7_406" x1="371.746" y1="10.3592" x2="371.746" y2="43.1323" gradientUnits="userSpaceOnUse">
<stop stop-color="#220080"/>
<stop offset="1" stop-color="#3D00E5"/>
</linearGradient>
<linearGradient id="paint11_linear_7_406" x1="371.746" y1="10.3592" x2="371.746" y2="43.1323" gradientUnits="userSpaceOnUse">
<stop stop-color="white"/>
<stop offset="1" stop-color="#3D00E5"/>
</linearGradient>
<linearGradient id="paint12_linear_7_406" x1="400.011" y1="40.9393" x2="400.011" y2="65.4348" gradientUnits="userSpaceOnUse">
<stop stop-color="#220080"/>
<stop offset="1" stop-color="#3D00E5"/>
</linearGradient>
<linearGradient id="paint13_linear_7_406" x1="400.011" y1="40.9393" x2="400.011" y2="65.4348" gradientUnits="userSpaceOnUse">
<stop stop-color="white"/>
<stop offset="1" stop-color="#3D00E5"/>
</linearGradient>
<linearGradient id="paint14_linear_7_406" x1="461.042" y1="50.7739" x2="461.042" y2="89.309" gradientUnits="userSpaceOnUse">
<stop stop-color="#220080"/>
<stop offset="1" stop-color="#3D00E5"/>
</linearGradient>
<linearGradient id="paint15_linear_7_406" x1="461.042" y1="50.7739" x2="461.042" y2="89.309" gradientUnits="userSpaceOnUse">
<stop stop-color="white"/>
<stop offset="1" stop-color="#3D00E5"/>
</linearGradient>
<linearGradient id="paint16_linear_7_406" x1="171.264" y1="128.992" x2="186.792" y2="131.448" gradientUnits="userSpaceOnUse">
<stop stop-color="#220080"/>
<stop offset="1" stop-color="#3D00E5"/>
</linearGradient>
<linearGradient id="paint17_linear_7_406" x1="171.264" y1="128.992" x2="186.792" y2="131.448" gradientUnits="userSpaceOnUse">
<stop stop-color="#220080"/>
<stop offset="1" stop-color="#3D00E5"/>
</linearGradient>
<linearGradient id="paint18_linear_7_406" x1="184.264" y1="49.9921" x2="199.792" y2="52.4485" gradientUnits="userSpaceOnUse">
<stop stop-color="#220080"/>
<stop offset="1" stop-color="#3D00E5"/>
</linearGradient>
<linearGradient id="paint19_linear_7_406" x1="184.264" y1="49.9921" x2="199.792" y2="52.4485" gradientUnits="userSpaceOnUse">
<stop stop-color="#220080"/>
<stop offset="1" stop-color="#3D00E5"/>
</linearGradient>
<linearGradient id="paint20_linear_7_406" x1="256.264" y1="103.992" x2="271.792" y2="106.448" gradientUnits="userSpaceOnUse">
<stop stop-color="#220080"/>
<stop offset="1" stop-color="#3D00E5"/>
</linearGradient>
<linearGradient id="paint21_linear_7_406" x1="256.264" y1="103.992" x2="271.792" y2="106.448" gradientUnits="userSpaceOnUse">
<stop stop-color="#220080"/>
<stop offset="1" stop-color="#3D00E5"/>
</linearGradient>
<linearGradient id="paint22_linear_7_406" x1="134.264" y1="107.992" x2="149.792" y2="110.449" gradientUnits="userSpaceOnUse">
<stop stop-color="#220080"/>
<stop offset="1" stop-color="#3D00E5"/>
</linearGradient>
<linearGradient id="paint23_linear_7_406" x1="134.264" y1="107.992" x2="149.792" y2="110.449" gradientUnits="userSpaceOnUse">
<stop stop-color="white"/>
<stop offset="1" stop-color="#3D00E5"/>
</linearGradient>
<linearGradient id="paint24_linear_7_406" x1="186.264" y1="21.9921" x2="201.792" y2="24.4485" gradientUnits="userSpaceOnUse">
<stop stop-color="#220080"/>
<stop offset="1" stop-color="#3D00E5"/>
</linearGradient>
<linearGradient id="paint25_linear_7_406" x1="186.264" y1="21.9921" x2="201.792" y2="24.4485" gradientUnits="userSpaceOnUse">
<stop stop-color="white"/>
<stop offset="1" stop-color="#3D00E5"/>
</linearGradient>
<linearGradient id="paint26_linear_7_406" x1="531" y1="90.5" x2="630" y2="90.5" gradientUnits="userSpaceOnUse">
<stop stop-color="#E32126"/>
<stop offset="1" stop-color="#AC1518"/>
</linearGradient>
</defs>
</svg>
